<svg xmlns="http://www.w3.org/2000/svg" viewBox="0 0 64 64">
<g transform="translate(0,64) scale(0.003333,-0.003333)" fill="#1C4932" stroke="none">
<path d="M7590 17816 c0 -7 123 -458 274 -1002 151 -544 536 -1932 856 -3084
320 -1152 647 -2332 727 -2623 81 -290 150 -524 154 -520 4 5 449 1628 988
3608 540 1980 984 3608 987 3618 5 16 -94 17 -1990 17 -1679 0 -1996 -2 -1996
-14z M11496 16537 c-170 -623 -567 -2079 -883 -3237 -315 -1158 -576 -2112
-579 -2120 -3 -10 -2 -11 4 -5 6 6 408 755 895 1665 486 910 1056 1977 1267
2370 210 393 412 771 449 839 36 69 65 130 63 135 -2 6 -125 211 -274 456
-149 245 -347 571 -441 725 -93 154 -175 285 -181 292 -8 9 -89 -273 -320
-1120z M7338 17587 c-14 -23 -213 -350 -442 -726 l-416 -684 29 -51 c16 -28
376 -701 801 -1496 425 -795 816 -1526 869 -1625 53 -99 292 -545 531 -992
239 -447 436 -810 438 -808 2 2 -129 482 -292 1067 -344 1240 -1143 4122
-1341 4838 -76 272 -140 500 -144 507 -4 8 -16 -4 -33 -30z M6390 17065 c-212
-68 -806 -257 -1320 -420 -514 -164 -1179 -375 -1478 -470 -298 -95 -545 -175
-549 -178 -3 -4 398 -744 891 -1645 l896 -1639 0 -5598 0 -5599 21 -44 c13
-26 38 -54 62 -70 l41 -27 1555 0 1556 0 95 32 c201 68 212 78 888 795 l422
447 0 3697 0 3698 -257 480 c-141 265 -302 567 -358 671 -103 191 -208 387
-1335 2495 -337 630 -770 1440 -963 1800 -294 550 -350 661 -350 695 0 35 39
103 291 519 161 263 292 480 292 482 0 7 -14 3 -400 -121z m1530 -11820 c69
-36 91 -116 50 -183 -40 -66 42 -62 -1391 -62 -1195 0 -1304 1 -1336 17 -92
43 -97 170 -10 223 31 20 60 20 1345 20 1140 0 1317 -2 1342 -15z M12410
17187 c0 -3 124 -209 276 -458 152 -250 285 -473 296 -496 12 -28 16 -52 12
-70 -4 -15 -75 -156 -159 -313 -84 -157 -463 -865 -842 -1575 -380 -709 -781
-1459 -891 -1665 -110 -206 -464 -868 -786 -1470 l-586 -1095 0 -3700 1 -3700
512 -540 c282 -296 535 -557 562 -578 63 -48 191 -110 275 -134 62 -17 148
-18 1616 -18 l1550 0 41 27 c24 16 49 44 62 70 l21 44 0 5599 0 5598 34 61
c421 762 1757 3218 1753 3223 -4 3 -251 83 -549 178 -299 95 -964 306 -1478
470 -514 163 -1101 350 -1305 415 -203 64 -380 120 -392 124 -13 4 -23 5 -23
3z m1557 -11947 c85 -51 81 -174 -8 -222 -32 -17 -94 -18 -1337 -18 -1084 0
-1308 2 -1336 14 -50 21 -76 60 -76 115 0 53 18 84 64 112 30 18 69 19 1346
19 1287 0 1316 0 1347 -20z M2724 15872 c-127 -83 -235 -241 -268 -392 -15
-69 -16 -530 -14 -5605 l3 -5530 1063 -3 1062 -2 0 4155 0 4156 -887 1622
c-487 892 -889 1625 -893 1630 -3 4 -33 -10 -66 -31z M15840 14862 c-315 -576
-716 -1309 -892 -1629 l-318 -583 0 -4155 0 -4155 1063 2 1062 3 3 5530 c2
5037 1 5537 -14 5603 -25 118 -85 225 -173 312 -42 41 -95 85 -117 97 l-41 23
-573 -1048z M2447 4083 c-4 -3 -7 -195 -7 -425 l0 -418 1065 0 1065 0 0 425 0
425 -1058 0 c-582 0 -1062 -3 -1065 -7z M14630 3665 l0 -425 1065 0 1065 0 -2
423 -3 422 -1062 3 -1063 2 0 -425z"/>
</g>
</svg>